<svg width="300" height="300" viewBox="0 0 300 300" xmlns="http://www.w3.org/2000/svg">
  <defs>
    <radialGradient id="blueGradient" cx="50%" cy="50%" r="50%">
      <stop offset="0%" style="stop-color:#60A5FA;stop-opacity:0.9"/>
      <stop offset="100%" style="stop-color:#1E40AF;stop-opacity:1"/>
    </radialGradient>
    <linearGradient id="frameGradient" x1="0%" y1="0%" x2="100%" y2="100%">
      <stop offset="0%" style="stop-color:#7DD3FC"/>
      <stop offset="50%" style="stop-color:#3B82F6"/>
      <stop offset="100%" style="stop-color:#1E3A8A"/>
    </linearGradient>
  </defs>
  
  <!-- Main decorative frame -->
  <rect x="20" y="20" width="260" height="260" fill="none" stroke="url(#frameGradient)" stroke-width="4" rx="25"/>
  
  <!-- Outer decorative elements -->
  <circle cx="50" cy="50" r="12" fill="url(#blueGradient)" opacity="0.8"/>
  <circle cx="250" cy="50" r="12" fill="url(#blueGradient)" opacity="0.8"/>
  <circle cx="50" cy="250" r="12" fill="url(#blueGradient)" opacity="0.8"/>
  <circle cx="250" cy="250" r="12" fill="url(#blueGradient)" opacity="0.8"/>
  
  <!-- Top decorative wings -->
  <path d="M80 40 Q100 25 120 30 Q140 35 160 25 Q180 30 200 40 Q210 45 220 40" 
        fill="none" stroke="url(#frameGradient)" stroke-width="3" opacity="0.7"/>
  
  <!-- Bottom decorative wings -->
  <path d="M80 260 Q100 275 120 270 Q140 265 160 275 Q180 270 200 260 Q210 255 220 260" 
        fill="none" stroke="url(#frameGradient)" stroke-width="3" opacity="0.7"/>
  
  <!-- Side decorative elements -->
  <rect x="35" y="140" width="8" height="20" fill="url(#blueGradient)" rx="4" opacity="0.8"/>
  <rect x="257" y="140" width="8" height="20" fill="url(#blueGradient)" rx="4" opacity="0.8"/>
  <rect x="140" y="35" width="20" height="8" fill="url(#blueGradient)" rx="4" opacity="0.8"/>
  <rect x="140" y="257" width="20" height="8" fill="url(#blueGradient)" rx="4" opacity="0.8"/>
  
  <!-- Inner decorative border -->
  <rect x="40" y="40" width="220" height="220" fill="none" stroke="url(#blueGradient)" stroke-width="2" rx="20" opacity="0.5"/>
  
  <!-- Central area remains completely transparent for profile photo -->
</svg>